<?xml version="1.0" encoding="UTF-8"?>
<svg xmlns="http://www.w3.org/2000/svg" viewBox="0 0 2891.34 1247.24" height="1247.24" width="2891.34" >
  <defs>
    <style>
      .cls-1 {
        fill: #c9c4c2;
      }

      .cls-2, .cls-3 {
        fill: #f9b83e;
      }

      .cls-4, .cls-5, .cls-6, .cls-7, .cls-8, .cls-9, .cls-10, .cls-11, .cls-12, .cls-13 {
        fill: none;
      }

      .cls-4, .cls-14 {
        stroke: #000;
      }

      .cls-4, .cls-14, .cls-8, .cls-9, .cls-10 {
        stroke-width: 4px;
      }

      .cls-4, .cls-14, .cls-8, .cls-10, .cls-11, .cls-12, .cls-13 {
        stroke-linecap: round;
        stroke-linejoin: round;
      }

      .cls-15, .cls-16, .cls-17, .cls-18 {
        isolation: isolate;
        opacity: .3;
      }

      .cls-19, .cls-20 {
        fill: #58595b;
      }

      .cls-21 {
        fill: #ff8c9e;
      }

      .cls-3 {
        opacity: .48;
      }

      .cls-22 {
        fill: #19285f;
      }

      .cls-23 {
        fill: #231f20;
      }

      .cls-24, .cls-14 {
        fill: #ad805a;
      }

      .cls-16 {
        fill: #a1634a;
      }

      .cls-5, .cls-6, .cls-20, .cls-7 {
        stroke-miterlimit: 10;
      }

      .cls-5, .cls-6, .cls-11 {
        stroke-width: 3px;
      }

      .cls-5, .cls-9, .cls-11, .cls-12 {
        stroke: #fff;
      }

      .cls-6 {
        stroke: #e3000f;
      }

      .cls-20 {
        stroke: #c9c4c2;
      }

      .cls-7 {
        stroke: #f9b83e;
      }

      .cls-8 {
        stroke: #222020;
      }

      .cls-10 {
        stroke: #ff8c9e;
      }

      .cls-25 {
        fill: #fff;
      }

      .cls-26 {
        fill: #9c2b42;
      }

      .cls-12, .cls-13 {
        stroke-width: 3.35px;
      }

      .cls-27 {
        fill: #e3000f;
      }

      .cls-28 {
        opacity: .2;
      }

      .cls-17 {
        fill: #4a2b36;
      }

      .cls-29 {
        fill: #4f051f;
      }

      .cls-18 {
        fill: #222020;
      }

      .cls-13 {
        stroke: #58595b;
      }

      .cls-30 {
        fill: #008f67;
      }

      .cls-31 {
        fill: #dbab7d;
      }
    </style>
  </defs>
  <g id="background">
    <polyline class="cls-3" points="2890.89 1247 0 1247 0 .03 2890.89 .03"/>
  </g>
  <g id="Layer_10">
    <line class="cls-5" x1="174.32" y1="1113" x2="2518.32" y2="1113"/>
  </g>
  <g id="Layer_9">
    <g class="cls-28">
      <path class="cls-25" d="M622.5,1095.32c-81.43-67.65-99.27-179.19-159.13-295.45-59.87-116.26-162.99-237.43-110.72-308.64,52.29-71.21,258.46-91.76,404.09-168.15,145.61-76.4,230.39-207.74,367.69-268.43,137.04-59.79,326.32-48,427.59,35.05,102.73,82.34,116.25,235.76,211.52,357.58,93.8,122.54,268.12,213.3,327.47,331.37,60.32,119.16,4.42,265.45-133.46,332.67-137.89,67.2-358.02,56.25-531.14,59.29-174.59,3.77-300.94,21.73-437.98,19.1-136.78-3.54-283.02-27.46-365.94-94.4Z"/>
    </g>
    <path class="cls-25" d="M2089.16,401.2h345.06c24.75,0,44.99,20.09,44.99,44.99v345.06c0,24.75-20.09,44.99-44.99,44.99h-345.06c-24.75,0-44.99-20.09-44.99-44.99v-345.06c0-24.9,20.09-44.99,44.99-44.99Z"/>
    <polyline class="cls-6" points="2237.61 658.34 2237.61 712.39 2237.61 766 2367.55 572.95 2361.91 572.95 2278.45 572.95 2278.45 469 2152.23 632.35 2241.33 632.35"/>
    <path class="cls-25" d="M506.84,323.85v-1.64c0-6.68-.88-13.38-2.76-19.94-8.84-30.67-37.24-52-69.04-52-6.7,0-13.25.88-19.69,2.78-11.86-17.3-29.53-30.04-49.72-35.86-8.08-2.27-16.42-3.53-24.87-3.53-39.89,0-75.49,26.76-86.59,65.14-7.33-4.05-15.65-6.07-24.11-6.07-28.14,0-50.86,22.84-50.86,50.88v.24h327.65Z"/>
    <path class="cls-27" d="M2365.67,276.9c-26.92-.48-49.14,20.95-49.62,47.87,0,32.74,34.89,70.55,48.73,70.55s48.75-37.81,48.75-70.55c-.47-26.24-21.63-47.39-47.86-47.87ZM2364.78,340.05c-8.44,0-15.28-6.84-15.28-15.28s6.84-15.28,15.28-15.28,15.28,6.84,15.28,15.28-6.84,15.28-15.28,15.28Z"/>
    <g>
      <path class="cls-30" d="M1216,1105.83c1.68-9.13,5.87-17.71,12.16-25.03,6.31-7.32,14.52-13.14,23.92-16.91,9.4-3.79,19.72-5.44,29.99-4.77,10.3.64,20.23,3.57,28.96,8.5h0c3.36-30.55,18.67-59.03,43.24-80.41,24.56-21.38,56.78-34.26,90.96-36.36,34.15-2.11,68.04,6.71,95.63,24.89,27.6,18.17,47.14,44.5,55.11,74.35,3.87-2.11,7.94-3.91,12.15-5.4,12.02-4.29,24.95-6.05,37.87-5.17,12.89.9,25.38,4.43,36.5,10.35,11.13,5.9,20.59,14.02,27.69,23.73,7.07,9.69,11.57,20.72,13.13,32.23h-507.31Z"/>
      <path class="cls-30" d="M1483.37,960.01c59.69,27.88,81.02,93.05,86.19,112.52,6.87-9.1,15.89-16.76,26.41-22.44-6.36-23.71-20.03-45.35-39.46-62.42-19.45-17.09-43.85-28.9-70.43-34.14-.92-.16-1.88-.04-2.69.36-.83.41-1.45,1.07-1.79,1.85-.31.78-.31,1.64,0,2.43.31.78.94,1.44,1.77,1.84h0Z"/>
    </g>
    <g>
      <path class="cls-11" d="M1671.22,650.48v452.61"/>
      <path class="cls-22" d="M1461.76,337.38h330.37l-243.26,765.71h-330.39l243.28-765.71Z"/>
      <path class="cls-11" d="M1284.48,1098.82l242.62-761.44"/>
      <path class="cls-11" d="M1350.63,1099.64l242.78-762.26"/>
      <path class="cls-11" d="M1417.99,1099.46l241.73-762.08"/>
      <path class="cls-11" d="M1484.3,1099.46l241.73-762.08"/>
      <path class="cls-11" d="M1764.57,424.15h-329.63"/>
      <path class="cls-11" d="M1733.21,522.85h-330.38"/>
      <path class="cls-11" d="M1701.85,621.55h-330.37"/>
      <path class="cls-11" d="M1671.22,720.25h-331.1"/>
      <path class="cls-11" d="M1639.14,818.94h-330.38"/>
      <path class="cls-11" d="M1607.78,917.64h-329.56"/>
      <path class="cls-11" d="M1576.44,1016.32h-329.71"/>
    </g>
    <g>
      <path class="cls-27" d="M1032.5,879.59l-.78-120.7-10.14.17c-4.85,3.64-5.8,4.94-9.45,8.14-29.2,25.57-42.81,49.31-47.39,58.4-10.05,20.1-8.67,37.26,4.24,51.13,13.78,14.82,32.5,20.1,32.67,20.19l2.17.69,28.68-18.03Z"/>
      <path class="cls-4" d="M1001.05,847.62l-14.64.43"/>
      <path class="cls-31" d="M1116.21,731.68c2.6,1.47,5.37,2.42,8.32,2.86,1.73.26,3.46.43,5.28.43,5.63,0,10.4-1.65,13.43-4.6,6.33-6.24,7.89-14.65,5.72-30.85.87-.69,5.2-4.68,4.94-7.8-.18-2.51-4.42-4.16-7.02-4.94l-.27-1.73-.09-.69c-1.21-7.8-2.16-14.56-3.98-20.28-2.51-7.71-9.01-9.09-16.72-13.78-5.29-3.2-9.27-5.29-15.43-6.33-2.95-.52-5.37-1.13-8.31-1.13-8.76,0-11.44,3.12-18.03,7.28-14.04,8.75-14.99,25.47-14.9,37.08l.43,2.25,1.91,3.55c0,2.25,3.73,5.03,3.73,8.84.09,7.53-10.4,16.2-10.31,24.09,0,3.12.08,6.15.17,8.58v.17l51.04,3.56.09-6.58Z"/>
      <path class="cls-18" d="M1116.21,731.68l-7.63-3.3c-.35-.26-.78-.35-1.3-.35-.78,0-1.56.35-2,1.05-.43.6-.6,1.47-.35,2.16l2.43,7.19,8.84-2.42v-4.33h0Z"/>
      <path d="M1089.69,640.17c3.84-1.26,8.14-1.55,12.39-1.55,2.95,0,5.89.26,8.84.77,6.16,1.05,12.05,3.21,17.42,6.41,7.11,4.25,11.44,9.88,14.21,18.28l-.26.18c-1.38.52-2.78.86-4.25.78-2.16,0-4.42-.35-6.58-.96-.26-.09-.52.18-.43.43.69,1.82,1.65,5.72-.17,8.84-1.74,2.95-5.63,4.68-11.52,5.11-.43,0-.7.43-.61.87,1.13,4.34.87,7.89-.78,10.58-1.47,2.16-3.81,3.73-6.41,4.24h-.17c-.09,0-7.45-4.33-14.47-4.33-4.51,0-7.89,1.73-9.96,5.2-3.56,5.72-.52,12.22,2.6,16.64,2.16,2.95,4.68,5.72,7.53,8.15.09.08.09.26-.08.26-2.52.78-20.54,6.15-26.26,6.15-3.55,0-5.98-.17-5.98-.17,0,0-.17-17.42-.26-24.79,0-3.81-.09-7.11-.09-9.36v-4.76c-.17-9.18-.35-24.69,6.58-35.1,0,0,7.71-8.25,18.72-11.87Z"/>
      <path class="cls-31" d="M1227.91,789.83c.78-2.87,1.22-4.85,1.3-5.29,1.47-.09,14.73-1.3,23.48-5.38,3.03-1.38,4.85-3.29,5.55-5.55.52-2.16.17-4.42-.87-6.33,2.69-3.2,3.9-6.15,3.55-8.93-.26-1.91-1.21-3.73-2.77-4.94,4.42-7.62-.87-11.96-1.56-12.47,0-.87-.35-7.45-5.63-9.27-1.13-.35-2.25-.52-3.38-.43-7.71,0-21.58,4.85-28.85,8.06.86-2.51,5.11-16.12,1.47-19.23-.52-.43-1.22-.69-1.91-.69-6.85,0-21.67,20.88-32.15,40.47-1.13,2.16-2.25,4.25-3.47,6.67l.96,8.23,40.03,19.58,4.25-4.5Z"/>
      <path class="cls-27" d="M1174.7,860.19c9.62.08,18.89-3.56,25.91-9.97,13.78-14.82,23.66-47.23,27.3-60.39l-45.24-23.31-.08.18c-2.95,5.8-5.46,11.35-7.72,16.29-1.13,2.42-2.16,4.76-3.11,6.67-7.8-14.9-16.9-25.65-28.08-32.76h-.09l-13.25-.78-50.44,40.9,51.22,41.95.87.69c14.47,13.6,28.94,20.54,42.72,20.54Z"/>
      <path class="cls-29" d="M1109.46,877.43c.18-.08,14.82-5.29,10.58-25.82,5.11-2.78,9.01-7.28,11.09-12.65,0,0-19.76-22.45-9.36-47.31,6.24-15.52,13.69-27.21,21.67-34.58.09-.08.09-.26,0-.26-2.08-1.04-17.94-9.09-26.78-11.09l-.52-9.71-51.21-5.72-1.56,11.96c-2.08.18-24.35,2.6-42.37,17.34-.18.08-13.87,10.66-11.36,32.14-1.22,1.22-19.49,19.41-8.67,48.62-.69,1.38-10.66,21.05,3.99,38.99l.52.61,103.99-2.52Z"/>
      <path class="cls-17" d="M1109.45,877.43c.18-.08,14.82-5.29,10.58-25.82,5.11-2.78,9.01-7.28,11.09-12.65,0,0-6.16-7.11-9.45-16.64l-.86.27c0,.26,1.13,21.83-22.7,25.3h-.18v.17c0,27.3-32.93,30.07-33.28,30.07v.35l44.8-1.04Z"/>
      <path class="cls-2" d="M1100.7,1112c22.96,0,41.76-12.82,50.26-34.4,8.66-21.92,3.29-55.89-.61-74.18-5.8-26.69-15.51-53.04-24.78-67.16-12.14-18.45-55.29-42.28-84.58-42.28-13.52,0-22.1,5.29-24.79,15.34-9.18,34.14,50.35,107.97,56.33,115.25-14.56-6.49-29.12-12.31-42.98-16.98l-1.13.35-12.31,73.57.86,1.39c6.07,2.51,12.22,5.11,18.37,7.71,16.64,7.02,33.88,14.3,47.14,18.63,5.9,1.82,12.05,2.77,18.2,2.77Z"/>
      <path class="cls-15" d="M1148.45,995.45c-5.89-24.26-14.55-46.44-22.87-59.1-12.14-18.45-55.29-42.28-84.58-42.28-13.52,0-22.1,5.28-24.79,15.33-5.02,18.72,10.75,49.22,24.88,71.49,10.22,5.55,18.63,8.06,29.29,11.36,11.7,3.38,23.23,7.36,34.57,11.96,25.13,10.22,34.23,24.09,46.71,43.24l.35.52-3.56-52.51Z"/>
      <path class="cls-2" d="M1211.79,1016.08l2.08-1.73c1.91-8.76,4.07-18.03,6.24-27.13,4.33-18.54,8.4-36.05,10.31-49.13,1.82-12.65-.69-24.96-6.93-34.83-7.28-11.36-19.5-19.23-35.44-22.88-14.38-3.2-37.95-3.9-55.2-3.9-15.42,0-27.56.52-27.64.52l-100.25,2.34c-7.19,28.77-4.6,52,7.71,68.98,10.74,14.73,29.12,24.01,50.35,25.39,2.86.17,5.89.26,9.01.26,33.7,0,73.22-10.92,76.95-12.05-4.42,17.25-7.98,34.84-10.49,52.43l3.98,6.49,69.32-4.76Z"/>
      <path class="cls-4" d="M1031.46,964.78c9.71,4.76,20.63,8.23,31.46,8.84,27.9,1.82,62.48-5.72,77.99-9.62l8.23-2.16,36.92-11.87"/>
      <path class="cls-29" d="M930.86,1098.31c6.49-2.69,11.35-7.62,16.64-12.74,6.76-6.67,13.69-13.51,24.52-16.03.78-.17,1.56-.26,2.34-.26,8.4,0,26.08,6.85,42.37,13.52l.26.09,12.57-75.3c-37.53-12.65-64.65-15.86-80.85-16.38l-10.49,11.78-12.56,91.59,5.2,3.73Z"/>
      <path class="cls-29" d="M1246.63,1098.4c-3.12-6.76-8.58-10.74-14.9-15.34-7.11-5.2-15.08-11-22.1-22.27-3.73-6.07.35-27.9,4.25-46.28v-.17h-75.39s-3.73,67.24-1.47,84.14l22.27,8.93,83.97-4.42,3.38-4.6Z"/>
      <path class="cls-4" d="M1171.76,790l4.42,24.26"/>
      <path class="cls-4" d="M1001.13,840.26l118.72,11.27"/>
      <path class="cls-4" d="M1009.8,791.73l110.92,2.6"/>
      <path class="cls-4" d="M1110.84,876.83l-105.89,2.51"/>
      <path class="cls-8" d="M1256.43,740.95l-15.26,3.98"/>
      <path class="cls-8" d="M1257.98,753.43l-13,3.47"/>
      <path class="cls-8" d="M1257.2,767.29l-10.83,2.78"/>
      <path class="cls-8" d="M1218.38,739.56l-8.06,3.38"/>
      <path class="cls-4" d="M1072.54,1024.57l27.47,29.46"/>
      <path class="cls-8" d="M1116.21,731.68l-7.63-4.43"/>
      <path class="cls-8" d="M1105.29,706.73l-6.41-3.9"/>
      <path class="cls-8" d="M1141.77,707.59c-3.2.09-6.24-1.56-8.06-4.24"/>
      <path class="cls-23" d="M1137.61,689.48c-1.19,0-2.16-.97-2.16-2.16s.97-2.16,2.16-2.16,2.17.97,2.17,2.16-.97,2.16-2.17,2.16Z"/>
      <path class="cls-4" d="M992.82,1073.36v-18.28"/>
      <path class="cls-4" d="M977.3,1069.28l-3.03-16.72"/>
      <path class="cls-4" d="M1176,1014.43c-6.75,38.13-1.55,84.06-1.55,84.06"/>
      <path class="cls-4" d="M1208.24,1046.58l-16.47.78"/>
      <path class="cls-4" d="M1209.54,1060.27l-15.42,7.28"/>
      <path class="cls-27" d="M1249.4,1112.09v-.17c0-4.68-.86-9.27-2.77-13.52l-109.62.09c.52,4.51,1.38,9.01,2.51,13.43l109.88.17Z"/>
      <path class="cls-27" d="M920.28,1100.4c3.64,0,7.19-.7,10.58-2.08l17.85-107.1c-1.74-.09-3.21,0-4.85,0-3.38-.09-6.76.09-10.14.52l-18.72,108.24c1.65.26,3.47.35,5.29.43Z"/>
      <path class="cls-4" d="M1138.48,1014.35c1.38-10.23,3.56-21.67,6.07-33.46"/>
      <path class="cls-4" d="M1024.02,1040.78c-34.15-14.21-80.94-15.69-80.94-15.69"/>
    </g>
    <g>
      <path class="cls-25" d="M1934.14,1072.16c1.88-12.44,4.11-36.07,4.11-61.24l-77.71,3.59c.89,13.16,3.04,23.99,3.22,33.66l16.84,47.63,53.55-23.64Z"/>
      <path class="cls-24" d="M1709.78,570.17c-4.93-3.04-8.15-4.83-11.9-6.8-1.18-.63-2.43-1.25-3.95-2.16-29.54-15.66-47.72-18.7-62.49-20.41-1.07-.09-2.06-.18-2.96-.18-8.4,0-9.67,5.2-9.67,5.2h-.09c-2.06,0-3.58.63-4.56,1.88-1.97,2.5-1.25,6.54-1.25,6.54,0,0-3.49,2.15-3.77,5.36-.18,2.15,1.09,4.3,3.77,6.36,6.45,5.19,21.57,13.25,23.63,14.32v.09c-1.16-.18-6.26-.54-11.46-.54-7.17,0-15.75.63-15.75,3.5,0,5.01,27.65,9.49,28.82,9.67.09.09,10.21,6.26,33.76,11.46,0,0,4.29,6.08,10.3,13.34l1.79-.18,25.79-47.45Z"/>
      <path class="cls-24" d="M1916.14,490.76c-9.04-13.16-20.41-29.46-32.24-54.34-16.82-35.64-37.95-41-49.06-41-9.58,0-16.82,3.84-20.14,7.15-7.96,8.06-7.6,19.96-7.33,30.44.09,3.41.18,6.63-.09,9.4-.27.09-6.63,1.8-6.63,4.3,0,1.88,1.7,4.2,5.01,6.88.19.09.28.19.28.28-1.8,11.37-2.7,27.3,9.66,33.48,2.43,1.25,5.91,1.88,10.22,1.88,5.28,0,10.03-.98,10.12-.98l1.7,10.65,78.52-8.15Z"/>
      <path class="cls-4" d="M1820.79,462.38c-1.89,1.16-3.95,2.16-6,2.87"/>
      <path class="cls-2" d="M1940.85,706.7c.36-.36,38.95-34.82,44.95-61.68,6.9-30.8-15.32-81.02-65.99-149.33-1.7-2.32-2.95-4.04-3.67-5.02-1.7-2.32-3.14-4.38-4.39-6.26l-74.12,14.32,1.79,11.28c-28.11,7.26-46.83,28.47-60.43,44.06-1.34,1.52-2.7,3.04-3.95,4.47-16.02,18.09-29.81,34.21-29.99,34.39-.18-.09-18.18-12.45-36.25-23.38l-27.31,47.45c13.34,15.94,40.2,42.97,70.73,44.77.54,0,1.07.09,1.61.09,29.46,0,71.17-48.08,71.62-48.62l26.68,69.74,75.12-5.11,13.6,28.83Z"/>
      <path class="cls-15" d="M1940.85,706.79c.18-.18,20.05-18,33.49-37.78-30.89-5.9-33.85-54.61-33.94-55.14l-6.35,54.16,6.8,38.77Z"/>
      <path d="M1875.32,395.42c2.59,2.06,5.1,4.38,7.24,6.88,34.48,39.93,43.7,43.34,62.05,49.96,4.65,1.71,9.94,3.68,16.38,6.45,40.11,17.46,78.88,83.98,78.88,84.25l-23.09,8.78c-.18-.18-9.76-17.55-26.33-21.94,5.47,8.42,9.4,17.64,11.65,27.49l-90.5,27.13c-.36-.27-55.44-68.04-51.32-122.93,10.12-5.72,13.34-12.89,14.23-17.82,1.09-5.9-.63-11.28-2.77-13.87-1.79-2.24-5.36-4.56-9.67-4.56-4.29,0-10.74,2.32-16.73,13.42-23.29-4.93-37.25-14.87-37.43-14.96-7.17-5.28-11.73-12.35-12.9-19.88-.63-5.36.36-10.56,2.87-13.96,3.13-3.93,7.78-6.18,12.8-6.18,3.67,0,7.17,1.26,10.03,3.5.89.72,1.97,1.61,2.77,2.77,5.82-3.67,12.9-5.56,20.59-5.56,5.91,0,11.74,1.09,17.28,3.14"/>
      <path class="cls-4" d="M1934.68,668.03l7.06-60.88"/>
      <path class="cls-4" d="M1825.44,613.24c5.91-7.34,9.4-12.45,9.4-12.45"/>
      <path class="cls-4" d="M1839.41,510.01l6.63-1.7"/>
      <path class="cls-14" d="M1861.44,442.23l-5.28,6.18"/>
      <path class="cls-4" d="M1950.52,635.35l-12.35,3.58"/>
      <path class="cls-16" d="M1848.19,484.95l-12.26,3.22,1.25,8.06,11.01-11.28Z"/>
      <path class="cls-15" d="M1745.04,593.1s-4.56-3.14-11.99-8.15l-1.25,24.52,13.25-16.38Z"/>
      <path class="cls-4" d="M1835.93,488.25c3.31-.98,6.53-2.5,9.67-3.84"/>
      <path class="cls-4" d="M1619.89,545.47c12.71,2.59,25.06,6.44,37.06,11.46"/>
      <path class="cls-4" d="M1612.81,555.14c23.81,7.97,37.07,14.14,37.07,14.14"/>
      <path d="M1817.12,446.09c-1.49,0-2.7-1.2-2.7-2.7,0-1.48,1.2-2.68,2.7-2.68s2.68,1.2,2.68,2.68-1.2,2.7-2.68,2.7Z"/>
      <path class="cls-15" d="M1887.58,667.94c-26.5-30.44-42.8-76.91-42.98-77.36-7.15,8.95-19.06,22.66-19.25,22.75l21.14,54.7,41.09-.09Z"/>
      <path class="cls-4" d="M1745.04,592.92l-8.69,9.85"/>
      <path class="cls-29" d="M1928.5,1100.1c.09-.27,1.88-2.77,5.65-27.94h-21.5c-5.63,0-11.19,1.53-16.2,4.3l-11.64,6.63c-.73.36-1.53.63-2.25.63-.45,0-.89-.09-1.34-.27-1.07-.36-1.97-1.18-2.5-2.16-.54-1.07-.63-2.24-.18-3.31l4.92-14.14c.45-1.18.63-2.43.63-3.86,0-6.53-5.28-11.82-11.82-11.82h-8.51s0,3.49,0,3.49c-.18,17.28-9.4,22.57-19.07,28.11-5.01,2.86-10.21,5.82-14.59,10.56-6.36,5.74-6.36,9.76-6.36,9.76l6.72,4.3,92.48,5.19,5.56-9.49Z"/>
      <path class="cls-21" d="M1925.19,1112c.18-.63,1.61-4.74,3.4-11.73,0-.09,0-.18-.09-.18-4.65,0-101.43,0-104.75,0q-.09,0-.09.09c-1.52,3.59-2.24,7.52-2.15,11.82,0,0,100.09.09,103.59.09q.09,0,.09-.09Z"/>
      <path class="cls-24" d="M1938.25,1014.61c.09-1.62,0-3.05,0-4.66v-2.41c-.54-34.21-5.65-55.69-10.12-74.58-3.84-16.29-7.52-31.69-7.52-52.37,0-25.43,5.11-47.45,11.01-72.96,3.86-16.66,8.24-35.55,11.92-58.37,7.78-48.88-8.51-68.85-8.69-69.12l-83.54-1.53c-.18.98-18,83.98-14.5,177.27,1.79,47.18,9.49,85.33,16.29,119,2.87,13.96,5.82,32.14,7.79,44.67l77.36-4.92Z"/>
      <path class="cls-16" d="M1928.05,932.59c-3.84-16.2-7.43-31.51-7.43-52.01,0-25.43,5.11-47.45,11.01-72.96,3.86-16.66,8.24-35.55,11.92-58.37,4.02-25.52,1.34-46.29-1.71-59.18-3.22-13.97-7.51-22.03-7.6-22.12h-87.83c-.18.98-13.17,94.55-9.67,187.83.36,9.76.98,20.14,2.15,31.88h2.41c21.66,0,39.66,14.14,57.12,27.92,9.76,7.7,19.96,15.67,30.44,20.87h.09l-.89-3.86Z"/>
      <path class="cls-10" d="M1853.38,1073.16l8.95,8.4"/>
      <path class="cls-10" d="M1844.69,1077.99l6.18,11.46"/>
      <path class="cls-25" d="M2120.54,1020.78c-7.52-20.32-19.07-43.77-32.24-64.28l-70.01,44.49c11.37,13.88,20.95,25.79,26.95,34.39l31.15,37.14,44.14-51.74Z"/>
      <path class="cls-29" d="M2130.93,1055.25c0-.18-2.25-13.17-10.38-34.56l-21.41,11.73c-4.83,2.7-9.04,6.63-11.99,11.38l-6.9,11.1c-.54.8-1.34,1.34-2.24,1.52-.18,0-.45.09-.63.09-1.52,0-2.77-1.07-3.13-2.68l-4.04-22.57c-.09-.63-.36-1.34-.72-1.97-1.07-2.06-3.22-3.31-5.54-3.31-1.07,0-2.15.27-3.05.8l-15.75,8.69c.72.98,1.25,1.97,1.79,2.77,8.86,14.86,4.02,24.17-.98,34.02-2.59,5.11-5.38,10.38-6.45,16.75-1.43,8.06-.09,14.87,4.48,21.57l2.06-2.59,84.88-52.73Z"/>
      <path class="cls-21" d="M2131.37,1056.14c0-.09-.8-4.39-2.96-11.9l-88.72,56.93c.8,3.86,2.34,7.52,4.57,10.83l87.11-55.86Z"/>
      <path class="cls-24" d="M2091.27,961.15c-.64-1.07-1.26-2.15-1.89-3.04-15.84-25.52-26.85-38.14-37.59-50.4-9.22-10.56-17.91-20.5-28.92-37.78-12.01-18.71-17.37-44.86-23.11-72.53-5.28-25.6-10.74-52.01-21.84-77.34-12.44-28.47-40.91-30.72-41.18-30.9l-55.69-9.4c.18,1.53,18.89,137.8,73.15,233.94,16.11,28.74,42.16,60.52,63.02,86.04l4.93,6,69.12-44.59Z"/>
      <path class="cls-16" d="M2050.61,915.94c2.61,0,5.29-.09,8.06-.18-2.32-2.78-4.56-5.47-6.8-7.97-9.22-10.65-18-20.77-29.28-38.23-11.92-18.62-17.37-44.77-23.11-72.35-5.28-25.6-10.83-52.1-21.84-77.52l-76.91,53.26c11.19,42.97,24.36,80.93,39.12,112.89,23.46,3.95,39.12,10.58,52.92,16.39,17.36,7.34,32.32,13.71,57.82,13.71Z"/>
      <path class="cls-10" d="M2050.07,1061.51l11.56,2.43"/>
      <path class="cls-10" d="M2046.23,1069.75l10.12,5.65"/>
      <path class="cls-22" d="M1846.49,668.03h88.19c.27.09,24.35,6.63,55.5,53.81,17.19,25.96,35.55,38.05,51.76,48.7,10.92,7.24,21.04,13.87,29.81,23.63l-21.5,41.9-213.88,3.77c-1.62-87.74,9.94-170.92,10.12-171.81Z"/>
      <path class="cls-27" d="M1838.07,877.89c.09,0,6.26-3.23,17.55-6.27,10.38-2.77,27.48-6.18,49.33-6.18,2.5,0,5.1,0,7.6.09,7.7.27,14.51.98,21.86,1.8,9.31.98,18.98,2.06,30.8,2.06,14.14,0,29.63-1.52,47.1-4.75,47.89-8.69,75.55-43.77,75.82-44.13-4.2-10.3-9.76-19.25-16.38-26.42-11.11,10.56-34.56,29.19-67.6,35.19-17.64,3.22-33.04,4.74-47.27,4.74-11.82,0-21.48-1.07-30.8-2.06-7.17-.8-13.97-1.52-21.57-1.79-2.52-.09-5.02-.09-7.52-.09-27.76,0-48.35,5.28-60.61,9.67.09,5.19.18,10.56.36,15.84.27,7.52,1.25,22.21,1.34,22.3Z"/>
    </g>
    <path class="cls-20" d="M723.25,818.49l98.07,106.82v183.81h-67.04s-19.38-7.03-26.06-7.2c-7.54-.18-29.31,7.2-29.31,7.2h-266.12v-183.81l194.95-31.72,86.93-75.79h7.04c.51,0,1.02.18,1.54.69"/>
    <g>
      <path class="cls-29" d="M623.62,925.32l98.25-106.99c.34-.18.17-.52-.17-.52h-190.33l-98.59,107.51h190.84Z"/>
      <path d="M754.62,1109.12v-79.72c0-15.61-12.69-28.13-28.12-28.13s-28.13,12.69-28.13,28.13v79.72h56.24Z"/>
    </g>
    <path d="M697.18,922.74c0-15.24,12.36-27.61,27.61-27.61s27.61,12.36,27.61,27.61-12.36,27.61-27.61,27.61-27.61-12.36-27.61-27.61"/>
    <path class="cls-1" d="M565.44,818.49l98.07,106.82v183.81h-67.04s-19.38-7.03-26.06-7.2c-7.54-.18-29.31,7.2-29.31,7.2h-266.12v-183.81l194.95-31.72,86.93-75.79h7.04c.51,0,1.02.18,1.54.69"/>
    <line class="cls-13" x1="465.57" y1="1108.03" x2="465.57" y2="911.66"/>
    <g>
      <path class="cls-26" d="M465.81,925.32l98.25-106.99c.34-.18.17-.52-.17-.52h-190.33l-98.59,107.51h190.84Z"/>
      <path class="cls-19" d="M596.81,1109.12v-79.72c0-15.61-12.69-28.13-28.12-28.13s-28.13,12.69-28.13,28.13v79.72h56.24Z"/>
    </g>
    <polygon class="cls-19" points="274.97 1008.82 339.79 1007.28 274.97 1072.09 274.97 1008.82"/>
    <polygon class="cls-22" points="383.34 1017.23 465.13 866.86 238.11 866.86 156.32 1017.23 383.34 1017.23"/>
    <path class="cls-12" d="M464.03,867.95h-225.41l-81.21,148.18h117.81M409.39,966.62h-224.73M436.8,917.28h-225.24M312.85,1016.13l81.21-148.18M227.39,1016.13l81.21-148.18"/>
    <path class="cls-19" d="M539.37,922.74c0-15.24,12.36-27.61,27.61-27.61s27.61,12.36,27.61,27.61-12.36,27.61-27.61,27.61-27.61-12.36-27.61-27.61"/>
    <line class="cls-7" x1="285.32" y1="355" x2="608.32" y2="682"/>
    <line class="cls-7" x1="410.32" y1="370" x2="1220.32" y2="599"/>
    <line class="cls-7" x1="589.32" y1="329" x2="1384.32" y2="332.5"/>
    <path class="cls-2" d="M209.67,299.03c46.49,0,84.18-37.69,84.18-84.18s-37.69-84.16-84.18-84.16-84.16,37.69-84.16,84.16,37.69,84.18,84.16,84.18Z"/>
    <path class="cls-11" d="M2805.32,986.96c-70.85-11.23-130.94,82.59-166.63,64.2-43.92-22.69,29.99-181.56-36.63-170.56-66.64,11-109.5,125.83-76.27,120.41,26.16-4.33,74.84-164.5,19.53-226.19-55.28-61.69-182.06,78.07-212.28,129.5"/>
  </g>
  <g id="Layer_11">
    <g>
      <path class="cls-27" d="M405.95,734.98c29.83,0,54.01-24.18,54.01-54.01s-24.18-54.01-54.01-54.01-54.01,24.18-54.01,54.01,24.18,54.01,54.01,54.01Z"/>
      <path class="cls-2" d="M405.95,713.5c17.97,0,32.53-14.57,32.53-32.53s-14.56-32.53-32.53-32.53-32.52,14.56-32.52,32.53,14.56,32.53,32.52,32.53Z"/>
      <path class="cls-4" d="M417,663.53l-11.04,17.44,8.15,10.44"/>
    </g>
    <path class="cls-25" d="M740.13,611.27l32.37,10.73-31.6,6.41,2.68,25.4-17.29-21.07-20.5,18.33,11.41-27.93-30.72-3,30.67-7.39-12.44-24.11,23.49,17.2,15.29-23.55-3.35,28.97Z"/>
    <path class="cls-25" d="M1264.13,444.27l32.37,10.73-31.6,6.41,2.68,25.4-17.29-21.07-20.5,18.33,11.41-27.93-30.72-3,30.67-7.39-12.44-24.11,23.49,17.2,15.29-23.55-3.35,28.97Z"/>
    <g>
      <path class="cls-30" d="M2494.7,581.43c-38.06,0-69.01-30.96-69.01-69.02s30.95-69.01,69.01-69.01,69.02,30.96,69.02,69.01-30.96,69.02-69.02,69.02Z"/>
      <path class="cls-9" d="M2471.45,511.39l19.4,19.39,27.1-36.61"/>
    </g>
  </g>
</svg>